<svg width="34" height="35" viewBox="0 0 34 35" fill="none" xmlns="http://www.w3.org/2000/svg">
<path fill-rule="evenodd" clip-rule="evenodd" d="M28.2802 0.224738L28.2614 0.21014C27.8251 -0.128536 27.1969 -0.0494342 26.8583 0.386819L22.4717 6.0372C21.6062 7.15206 21.6502 8.68479 22.4912 9.74252L16.1086 18.5716L7.32373 9.28058L7.28687 9.31543L0 1.34502C0.693398 6.35073 3.34988 16.5643 9.70766 16.9354L14.0055 21.4809L6.1396 32.3619L8.99787 34.4281L16.4718 24.0893L26.3267 34.5121L28.8895 32.089L18.5749 21.1801L25.2694 11.9195C26.5145 12.5133 28.0476 12.1838 28.9282 11.0495L33.3147 5.39916C33.6534 4.96291 33.5743 4.3347 33.138 3.99603L32.7773 3.71594L28.7237 9.02413C28.4577 9.37245 27.9597 9.43919 27.6114 9.17319C27.2631 8.9072 27.1963 8.4092 27.4623 8.06088L31.5236 2.74265L31.11 2.42157L27.1366 7.62476C26.8706 7.97308 26.3726 8.03982 26.0243 7.77383C25.6759 7.50784 25.6092 7.00984 25.8752 6.66152L29.8563 1.44827L29.5339 1.19803L25.3735 6.64609C25.1075 6.99441 24.6095 7.06115 24.2612 6.79516C23.9129 6.52916 23.8462 6.03116 24.1121 5.68284L28.2802 0.224738Z" fill="#F7A541"/>
</svg>
